# Blender 5.1.1
# www.blender.org
mtllib explosion.mtl
o Icosphere
v 0.000000 -0.945359 0.000000
v 0.684062 -0.422779 0.496994
v -0.261283 -0.422779 0.804160
v -0.845553 -0.422779 0.000000
v -0.261283 -0.422779 -0.804160
v 0.684062 -0.422779 -0.496994
v 0.261283 0.422779 0.804160
v -0.576488 0.351246 0.412730
v -0.832555 0.539380 -0.626106
v 0.167379 0.271973 -0.538826
v 0.845553 0.422779 0.000000
v 0.000000 0.945359 0.000000
v 0.665275 -2.818090 2.047471
v 1.722658 -2.254985 0.000000
v -1.406437 -2.275665 1.021850
v -0.991094 -1.603628 -0.720080
v 0.633687 -2.684288 -1.950257
v 2.726887 -0.520798 0.000000
v 0.825035 -0.509888 2.539149
v -2.116220 -0.499565 1.537546
v -2.800533 -0.661106 -2.034740
v 0.837892 -0.517834 -2.578731
v 3.037737 0.717099 2.207083
v -1.013958 0.626640 3.120591
v -4.010529 0.765956 0.000000
v -1.036778 0.640748 -3.190827
v 2.931298 0.716702 -2.168663
v 1.283118 2.076131 0.932250
v -0.426054 1.804761 1.311236
v -1.906661 2.495852 0.000000
v -0.470218 1.991840 -1.447159
v 1.919499 3.105492 -1.478101
vn -0.3109 -0.4090 0.8580
vn 0.7568 -0.4077 0.5109
vn -0.2915 -0.4716 0.8323
vn -0.9205 -0.3880 0.0469
vn -0.0479 -0.9989 -0.0000
vn -0.0135 -0.9990 -0.0417
vn 0.0321 -0.9992 -0.0233
vn 0.0692 -0.9963 0.0502
vn -0.0145 -0.9989 0.0445
vn 0.6563 -0.4715 -0.5890
vn 0.7564 -0.4675 0.4575
vn -0.1582 -0.4212 0.8931
vn -0.8550 -0.5165 0.0477
vn -0.4277 -0.3678 -0.8257
vn 0.7102 -0.4789 0.5160
vn -0.3408 -0.4686 0.8150
vn -0.8539 -0.5068 0.1187
vn -0.0524 -0.4815 -0.8749
vn 0.5888 -0.5579 -0.5849
vn 0.7163 -0.3831 -0.5832
vn 0.2634 0.5227 0.8108
vn -0.9223 -0.3831 -0.0507
vn -0.3109 -0.4090 -0.8580
vn 0.8700 0.4931 -0.0000
vn -0.7031 0.4946 0.5109
vn -0.2520 -0.4077 -0.8776
vn -0.7355 0.4165 -0.5344
vn 0.7015 -0.4716 -0.5344
vn 0.2645 0.5172 -0.8140
vn 0.7171 -0.3880 0.5790
vn 0.2307 0.4599 -0.8575
vn 0.2307 0.4599 0.8575
vn 0.8875 0.4589 -0.0417
vn -0.7425 0.4589 0.4879
vn 0.2943 0.5240 0.7992
vn -0.6726 0.5164 -0.5300
vn -0.6825 0.4051 0.6083
vn 0.3745 0.3790 -0.8462
vn -0.6737 0.5871 -0.4488
vn 0.8011 0.5977 0.0319
vn -0.0772 0.9954 -0.0561
vn -0.3574 -0.4715 0.8062
vn -0.0350 0.9937 -0.1067
vn -0.9019 -0.4194 -0.1031
vn 0.1003 0.9831 0.1533
vn -0.2000 -0.5325 -0.8225
vn 0.2569 0.9663 0.0177
vn 0.8333 -0.3510 -0.4272
vn -0.1837 0.9820 -0.0436
vn 0.6678 -0.4678 0.5789
vn 0.2602 0.4211 -0.8689
vn -0.7460 0.4211 0.5160
vn 0.8952 0.4457 -0.0012
vn -0.7675 0.3927 -0.5067
vn 0.2824 0.3472 0.8943
vn 0.3770 0.4636 -0.8019
vn -0.6641 0.4865 0.5676
vn 0.9482 0.3055 -0.0872
vn -0.7626 0.2779 -0.5842
vn 0.2423 0.3920 0.8875
vt 0.272728 0.157461
vt 0.363637 0.000000
vt 0.363637 0.104974
vt 0.909091 0.000000
vt 1.000000 0.157461
vt 0.909091 0.104974
vt 0.727273 0.000000
vt 0.818182 0.157461
vt 0.727273 0.104974
vt 0.545455 0.000000
vt 0.636364 0.157461
vt 0.545455 0.104974
vt 0.454546 0.157461
vt 0.363637 0.209948
vt 0.090910 0.157461
vt 0.181819 0.209948
vt 0.909091 0.209948
vt 0.727273 0.209948
vt 0.545455 0.209948
vt 0.363637 0.314921
vt 0.272728 0.262434
vt 0.181819 0.314921
vt 0.090910 0.262434
vt 0.909091 0.314921
vt 0.818182 0.262434
vt 0.727273 0.314921
vt 0.636364 0.262434
vt 0.545455 0.314921
vt 0.454546 0.262434
vt 0.272728 0.367408
vt 0.000000 0.314921
vt 0.090910 0.367408
vt 0.818182 0.367408
vt 0.636364 0.367408
vt 0.454546 0.367408
vt 0.181819 0.000000
vt 0.181819 0.104974
vt 0.272728 0.472382
vt 0.090910 0.472382
vt 0.818182 0.472382
vt 0.636364 0.472382
vt 0.454546 0.472382
s 0
usemtl Material.002
f 2/1/1 1/2/1 14/3/1
f 1/4/2 3/5/2 15/6/2
f 1/7/3 4/8/3 16/9/3
f 1/10/4 5/11/4 17/12/4
f 2/1/5 6/13/5 18/14/5
f 3/15/6 2/1/6 19/16/6
f 4/8/7 3/5/7 20/17/7
f 5/11/8 4/8/8 21/18/8
f 6/13/9 5/11/9 22/19/9
f 2/1/10 11/20/10 23/21/10
f 3/15/11 7/22/11 24/23/11
f 4/8/12 8/24/12 25/25/12
f 5/11/13 9/26/13 26/27/13
f 6/13/14 10/28/14 27/29/14
f 7/22/15 11/20/15 28/30/15
f 8/31/16 7/22/16 29/32/16
f 9/26/17 8/24/17 30/33/17
f 10/28/18 9/26/18 31/34/18
f 11/20/19 10/28/19 32/35/19
f 1/36/20 2/1/20 13/37/20
f 2/1/21 3/15/21 13/37/21
f 3/15/22 1/36/22 13/37/22
f 1/2/23 6/13/23 14/3/23
f 6/13/24 2/1/24 14/3/24
f 3/5/25 4/8/25 15/6/25
f 4/8/26 1/4/26 15/6/26
f 4/8/27 5/11/27 16/9/27
f 5/11/28 1/7/28 16/9/28
f 5/11/29 6/13/29 17/12/29
f 6/13/30 1/10/30 17/12/30
f 6/13/31 11/20/31 18/14/31
f 11/20/32 2/1/32 18/14/32
f 2/1/33 7/22/33 19/16/33
f 7/22/34 3/15/34 19/16/34
f 3/5/35 8/24/35 20/17/35
f 8/24/36 4/8/36 20/17/36
f 4/8/37 9/26/37 21/18/37
f 9/26/38 5/11/38 21/18/38
f 5/11/39 10/28/39 22/19/39
f 10/28/40 6/13/40 22/19/40
f 11/20/41 7/22/41 23/21/41
f 7/22/42 2/1/42 23/21/42
f 7/22/43 8/31/43 24/23/43
f 8/31/44 3/15/44 24/23/44
f 8/24/45 9/26/45 25/25/45
f 9/26/46 4/8/46 25/25/46
f 9/26/47 10/28/47 26/27/47
f 10/28/48 5/11/48 26/27/48
f 10/28/49 11/20/49 27/29/49
f 11/20/50 6/13/50 27/29/50
f 11/20/51 12/38/51 28/30/51
f 12/38/52 7/22/52 28/30/52
f 7/22/53 12/39/53 29/32/53
f 12/39/54 8/31/54 29/32/54
f 8/24/55 12/40/55 30/33/55
f 12/40/56 9/26/56 30/33/56
f 9/26/57 12/41/57 31/34/57
f 12/41/58 10/28/58 31/34/58
f 10/28/59 12/42/59 32/35/59
f 12/42/60 11/20/60 32/35/60
