# Blender 5.1.1
# www.blender.org
mtllib pickup.mtl
o Cube
v 0.000000 0.420269 0.000000
v 0.000000 1.775218 0.000000
v -0.371594 0.925544 0.371594
v -0.371594 0.925544 -0.371594
v 0.371594 0.925544 -0.371594
v 0.371594 0.925544 0.371594
v 0.371594 0.925544 0.371594
v 0.371594 0.925544 -0.371594
v -0.371594 0.925544 -0.371594
v -0.371594 0.925544 0.371594
v -0.371594 0.925544 -0.371594
v -0.371594 0.925544 0.371594
v 0.371594 0.925544 0.371594
v 0.371594 0.925544 -0.371594
v 0.371594 0.925544 -0.371594
v 0.371594 0.925544 0.371594
v -0.371594 0.925544 0.371594
v -0.371594 0.925544 -0.371594
v 0.000000 1.430820 0.000000
v 0.000000 0.075870 0.000000
vn -0.9162 0.4007 -0.0000
vn -0.0000 0.4007 -0.9162
vn 0.9162 0.4007 -0.0000
vn -0.0000 0.4007 0.9162
vn -0.0000 -0.5925 0.8056
vn 0.8056 -0.5925 -0.0000
vn -0.0000 -0.5925 -0.8056
vn -0.8056 -0.5925 -0.0000
vn -0.9162 -0.4007 -0.0000
vn -0.0000 -0.4007 -0.9162
vn 0.9162 -0.4007 -0.0000
vn -0.0000 -0.4007 0.9162
vn -0.0000 0.5925 0.8056
vn 0.8056 0.5925 -0.0000
vn -0.0000 0.5925 -0.8056
vn -0.8056 0.5925 -0.0000
vt 0.500000 0.000000
vt 0.625000 0.250000
vt 0.500000 0.250000
vt 0.625000 0.500000
vt 0.500000 0.500000
vt 0.625000 0.750000
vt 0.500000 0.750000
vt 0.625000 1.000000
vt 0.500000 1.000000
vt 0.375000 0.750000
vt 0.375000 0.500000
vt 0.375000 0.250000
vt 0.375000 0.000000
s 0
usemtl Material.001
f 3/1/1 2/2/1 4/3/1
f 4/3/2 2/4/2 5/5/2
f 5/5/3 2/6/3 6/7/3
f 6/7/4 2/8/4 3/9/4
f 1/10/5 6/7/5 3/9/5
f 1/11/6 5/5/6 6/7/6
f 1/12/7 4/3/7 5/5/7
f 1/13/8 3/1/8 4/3/8
f 7/1/3 8/3/3 2/2/3
f 8/3/2 9/5/2 2/4/2
f 9/5/1 10/7/1 2/6/1
f 10/7/4 7/9/4 2/8/4
f 1/10/5 7/9/5 10/7/5
f 1/11/8 10/7/8 9/5/8
f 1/12/7 9/5/7 8/3/7
f 1/13/6 8/3/6 7/1/6
f 11/1/1 12/3/1 2/2/1
f 12/3/4 13/5/4 2/4/4
f 13/5/3 14/7/3 2/6/3
f 14/7/2 11/9/2 2/8/2
f 1/10/7 11/9/7 14/7/7
f 1/11/6 14/7/6 13/5/6
f 1/12/5 13/5/5 12/3/5
f 1/13/8 12/3/8 11/1/8
f 15/1/3 2/2/3 16/3/3
f 16/3/4 2/4/4 17/5/4
f 17/5/1 2/6/1 18/7/1
f 18/7/2 2/8/2 15/9/2
f 1/10/7 18/7/7 15/9/7
f 1/11/8 17/5/8 18/7/8
f 1/12/5 16/3/5 17/5/5
f 1/13/6 15/1/6 16/3/6
f 3/1/9 4/3/9 20/2/9
f 4/3/10 5/5/10 20/4/10
f 5/5/11 6/7/11 20/6/11
f 6/7/12 3/9/12 20/8/12
f 19/10/13 3/9/13 6/7/13
f 19/11/14 6/7/14 5/5/14
f 19/12/15 5/5/15 4/3/15
f 19/13/16 4/3/16 3/1/16
f 7/1/11 20/2/11 8/3/11
f 8/3/10 20/4/10 9/5/10
f 9/5/9 20/6/9 10/7/9
f 10/7/12 20/8/12 7/9/12
f 19/10/13 10/7/13 7/9/13
f 19/11/16 9/5/16 10/7/16
f 19/12/15 8/3/15 9/5/15
f 19/13/14 7/1/14 8/3/14
f 11/1/9 20/2/9 12/3/9
f 12/3/12 20/4/12 13/5/12
f 13/5/11 20/6/11 14/7/11
f 14/7/10 20/8/10 11/9/10
f 19/10/15 14/7/15 11/9/15
f 19/11/14 13/5/14 14/7/14
f 19/12/13 12/3/13 13/5/13
f 19/13/16 11/1/16 12/3/16
f 15/1/11 16/3/11 20/2/11
f 16/3/12 17/5/12 20/4/12
f 17/5/9 18/7/9 20/6/9
f 18/7/10 15/9/10 20/8/10
f 19/10/15 15/9/15 18/7/15
f 19/11/16 18/7/16 17/5/16
f 19/12/13 17/5/13 16/3/13
f 19/13/14 16/3/14 15/1/14
